<svg width="464" height="164" viewBox="0 0 464 164" fill="none" xmlns="http://www.w3.org/2000/svg">
<path d="M0.632031 162V2H57.732V21.2H22.232V71.4H55.732V90.6H22.232V162H0.632031ZM82.5539 162V2H104.154V162H82.5539ZM149.588 162V21.2H126.588V2H194.288V21.2H171.288V162H149.588ZM216.71 162V2H273.81V21.2H238.31V71.4H271.81V90.6H238.31V142.8H273.81V162H216.71ZM333.109 163.7C324.975 163.7 318.442 162.6 313.509 160.4C308.642 158.133 305.042 154.567 302.709 149.7C300.442 144.767 299.175 138.333 298.909 130.4C298.709 123.067 298.575 115.333 298.509 107.2C298.442 99 298.409 90.7333 298.409 82.4C298.409 74 298.442 65.7667 298.509 57.7C298.575 49.5667 298.709 41.8667 298.909 34.6C299.242 26.3333 300.575 19.7 302.909 14.7C305.242 9.63333 308.842 5.96666 313.709 3.69999C318.642 1.43332 325.075 0.29999 333.009 0.29999C344.409 0.29999 352.709 2.86666 357.909 7.99999C363.175 13.1333 366.142 21.6 366.809 33.4C367.009 37.5333 367.109 41.9333 367.109 46.6C367.109 51.2 367.009 55.5667 366.809 59.7H345.209C345.409 55.1667 345.509 50.1667 345.509 44.7C345.509 39.1667 345.409 34.1333 345.209 29.6C345.009 25.7333 343.875 22.8667 341.809 21C339.809 19.0667 336.875 18.1 333.009 18.1C328.942 18.1 325.875 19.0667 323.809 21C321.809 22.8667 320.709 25.7333 320.509 29.6C320.242 37.9333 320.009 46.5 319.809 55.3C319.675 64.1 319.609 72.9667 319.609 81.9C319.609 90.8333 319.675 99.7 319.809 108.5C320.009 117.3 320.242 125.867 320.509 134.2C320.709 138.133 321.809 141.067 323.809 143C325.875 144.867 328.975 145.8 333.109 145.8C337.242 145.8 340.442 144.867 342.709 143C344.975 141.067 346.209 138.133 346.409 134.2C346.475 131.667 346.509 128.867 346.509 125.8C346.575 122.667 346.575 119.6 346.509 116.6C346.509 113.533 346.475 110.7 346.409 108.1H334.209V89.2H367.509C367.709 94.8 367.775 101.133 367.709 108.2C367.709 115.267 367.575 122.667 367.309 130.4C366.842 142.267 363.942 150.8 358.609 156C353.342 161.133 344.842 163.7 333.109 163.7ZM429.288 163.7C421.155 163.7 414.622 162.6 409.688 160.4C404.822 158.133 401.222 154.567 398.888 149.7C396.622 144.767 395.355 138.333 395.088 130.4C394.888 123.067 394.755 115.333 394.688 107.2C394.622 99 394.588 90.7333 394.588 82.4C394.588 74 394.622 65.7667 394.688 57.7C394.755 49.5667 394.888 41.8667 395.088 34.6C395.422 26.3333 396.755 19.7 399.088 14.7C401.422 9.63333 405.022 5.96666 409.888 3.69999C414.822 1.43332 421.255 0.29999 429.188 0.29999C440.588 0.29999 448.888 2.86666 454.088 7.99999C459.355 13.1333 462.322 21.6 462.988 33.4C463.188 37.5333 463.288 41.9333 463.288 46.6C463.288 51.2 463.188 55.5667 462.988 59.7H441.388C441.588 55.1667 441.688 50.1667 441.688 44.7C441.688 39.1667 441.588 34.1333 441.388 29.6C441.188 25.7333 440.055 22.8667 437.988 21C435.988 19.0667 433.055 18.1 429.188 18.1C425.122 18.1 422.055 19.0667 419.988 21C417.988 22.8667 416.888 25.7333 416.688 29.6C416.422 37.9333 416.188 46.5 415.988 55.3C415.855 64.1 415.788 72.9667 415.788 81.9C415.788 90.8333 415.855 99.7 415.988 108.5C416.188 117.3 416.422 125.867 416.688 134.2C416.888 138.133 417.988 141.067 419.988 143C422.055 144.867 425.155 145.8 429.288 145.8C433.422 145.8 436.622 144.867 438.888 143C441.155 141.067 442.388 138.133 442.588 134.2C442.655 131.667 442.688 128.867 442.688 125.8C442.755 122.667 442.755 119.6 442.688 116.6C442.688 113.533 442.655 110.7 442.588 108.1H430.388V89.2H463.688C463.888 94.8 463.955 101.133 463.888 108.2C463.888 115.267 463.755 122.667 463.488 130.4C463.022 142.267 460.122 150.8 454.788 156C449.522 161.133 441.022 163.7 429.288 163.7Z" fill="#E50101"/>
<path d="M0.632031 162H-0.867969V163.5H0.632031V162ZM0.632031 2V0.499996H-0.867969V2H0.632031ZM57.732 2H59.232V0.499996H57.732V2ZM57.732 21.2V22.7H59.232V21.2H57.732ZM22.232 21.2V19.7H20.732V21.2H22.232ZM22.232 71.4H20.732V72.9H22.232V71.4ZM55.732 71.4H57.232V69.9H55.732V71.4ZM55.732 90.6V92.1H57.232V90.6H55.732ZM22.232 90.6V89.1H20.732V90.6H22.232ZM22.232 162V163.5H23.732V162H22.232ZM2.13203 162V2H-0.867969V162H2.13203ZM0.632031 3.5H57.732V0.499996H0.632031V3.5ZM56.232 2V21.2H59.232V2H56.232ZM57.732 19.7H22.232V22.7H57.732V19.7ZM20.732 21.2V71.4H23.732V21.2H20.732ZM22.232 72.9H55.732V69.9H22.232V72.9ZM54.232 71.4V90.6H57.232V71.4H54.232ZM55.732 89.1H22.232V92.1H55.732V89.1ZM20.732 90.6V162H23.732V90.6H20.732ZM22.232 160.5H0.632031V163.5H22.232V160.5ZM82.5539 162H81.0539V163.5H82.5539V162ZM82.5539 2V0.499996H81.0539V2H82.5539ZM104.154 2H105.654V0.499996H104.154V2ZM104.154 162V163.5H105.654V162H104.154ZM84.0539 162V2H81.0539V162H84.0539ZM82.5539 3.5H104.154V0.499996H82.5539V3.5ZM102.654 2V162H105.654V2H102.654ZM104.154 160.5H82.5539V163.5H104.154V160.5ZM149.588 162H148.088V163.5H149.588V162ZM149.588 21.2H151.088V19.7H149.588V21.2ZM126.588 21.2H125.088V22.7H126.588V21.2ZM126.588 2V0.499996H125.088V2H126.588ZM194.288 2H195.788V0.499996H194.288V2ZM194.288 21.2V22.7H195.788V21.2H194.288ZM171.288 21.2V19.7H169.788V21.2H171.288ZM171.288 162V163.5H172.788V162H171.288ZM151.088 162V21.2H148.088V162H151.088ZM149.588 19.7H126.588V22.7H149.588V19.7ZM128.088 21.2V2H125.088V21.2H128.088ZM126.588 3.5H194.288V0.499996H126.588V3.5ZM192.788 2V21.2H195.788V2H192.788ZM194.288 19.7H171.288V22.7H194.288V19.7ZM169.788 21.2V162H172.788V21.2H169.788ZM171.288 160.5H149.588V163.5H171.288V160.5ZM216.71 162H215.21V163.5H216.71V162ZM216.71 2V0.499996H215.21V2H216.71ZM273.81 2H275.31V0.499996H273.81V2ZM273.81 21.2V22.7H275.31V21.2H273.81ZM238.31 21.2V19.7H236.81V21.2H238.31ZM238.31 71.4H236.81V72.9H238.31V71.4ZM271.81 71.4H273.31V69.9H271.81V71.4ZM271.81 90.6V92.1H273.31V90.6H271.81ZM238.31 90.6V89.1H236.81V90.6H238.31ZM238.31 142.8H236.81V144.3H238.31V142.8ZM273.81 142.8H275.31V141.3H273.81V142.8ZM273.81 162V163.5H275.31V162H273.81ZM218.21 162V2H215.21V162H218.21ZM216.71 3.5H273.81V0.499996H216.71V3.5ZM272.31 2V21.2H275.31V2H272.31ZM273.81 19.7H238.31V22.7H273.81V19.7ZM236.81 21.2V71.4H239.81V21.2H236.81ZM238.31 72.9H271.81V69.9H238.31V72.9ZM270.31 71.4V90.6H273.31V71.4H270.31ZM271.81 89.1H238.31V92.1H271.81V89.1ZM236.81 90.6V142.8H239.81V90.6H236.81ZM238.31 144.3H273.81V141.3H238.31V144.3ZM272.31 142.8V162H275.31V142.8H272.31ZM273.81 160.5H216.71V163.5H273.81V160.5ZM313.509 160.4L312.875 161.76L312.886 161.765L312.898 161.77L313.509 160.4ZM302.709 149.7L301.346 150.326L301.351 150.337L301.356 150.348L302.709 149.7ZM298.909 130.4L297.409 130.441L297.409 130.45L298.909 130.4ZM298.509 107.2L297.009 107.212V107.212L298.509 107.2ZM298.509 57.7L300.009 57.7124V57.7123L298.509 57.7ZM298.909 34.6L297.41 34.5396L297.409 34.5491L297.409 34.5587L298.909 34.6ZM302.909 14.7L304.268 15.3343L304.271 15.3274L302.909 14.7ZM313.709 3.69999L313.082 2.33696L313.075 2.34024L313.709 3.69999ZM357.909 7.99999L356.855 9.06749L356.862 9.07416L357.909 7.99999ZM366.809 33.4L368.307 33.3275L368.306 33.3154L366.809 33.4ZM366.809 59.7V61.2H368.238L368.307 59.7725L366.809 59.7ZM345.209 59.7L343.71 59.6339L343.641 61.2H345.209V59.7ZM345.209 29.6L346.707 29.5339L346.707 29.5225L345.209 29.6ZM341.809 21L340.766 22.0785L340.784 22.0961L340.803 22.1131L341.809 21ZM323.809 21L324.832 22.0966L324.833 22.0954L323.809 21ZM320.509 29.6L319.011 29.5225L319.01 29.5373L319.009 29.552L320.509 29.6ZM319.809 55.3L318.309 55.2659L318.309 55.2773L319.809 55.3ZM319.809 108.5L318.309 108.523L318.309 108.534L319.809 108.5ZM320.509 134.2L319.009 134.248L319.01 134.262L319.011 134.276L320.509 134.2ZM323.809 143L322.766 144.078L322.784 144.096L322.803 144.113L323.809 143ZM342.709 143L343.662 144.158L343.672 144.15L343.682 144.141L342.709 143ZM346.409 134.2L347.907 134.276L347.908 134.258L347.908 134.239L346.409 134.2ZM346.509 125.8L345.009 125.768L345.009 125.784V125.8H346.509ZM346.509 116.6H345.009V116.617L345.009 116.633L346.509 116.6ZM346.409 108.1L347.908 108.062L347.871 106.6H346.409V108.1ZM334.209 108.1H332.709V109.6H334.209V108.1ZM334.209 89.2V87.7H332.709V89.2H334.209ZM367.509 89.2L369.008 89.1465L368.956 87.7H367.509V89.2ZM367.709 108.2L366.209 108.186L366.209 108.193V108.2H367.709ZM367.309 130.4L368.807 130.459L368.808 130.452L367.309 130.4ZM358.609 156L359.656 157.074L359.656 157.074L358.609 156ZM333.109 162.2C325.089 162.2 318.789 161.112 314.12 159.03L312.898 161.77C318.095 164.088 324.861 165.2 333.109 165.2V162.2ZM314.142 159.04C309.592 156.921 306.245 153.607 304.061 149.051L301.356 150.348C303.839 155.527 307.692 159.346 312.875 161.76L314.142 159.04ZM304.072 149.074C301.917 144.385 300.671 138.168 300.408 130.35L297.409 130.45C297.68 138.499 298.967 145.149 301.346 150.326L304.072 149.074ZM300.408 130.359C300.208 123.036 300.075 115.313 300.009 107.188L297.009 107.212C297.075 115.354 297.209 123.097 297.409 130.441L300.408 130.359ZM300.009 107.188C299.942 98.9919 299.909 90.7293 299.909 82.4H296.909C296.909 90.7373 296.942 99.0081 297.009 107.212L300.009 107.188ZM299.909 82.4C299.909 74.004 299.942 65.7748 300.009 57.7124L297.009 57.6876C296.942 65.7586 296.909 73.996 296.909 82.4H299.909ZM300.009 57.7123C300.075 49.5875 300.208 41.8972 300.408 34.6413L297.409 34.5587C297.209 41.8361 297.075 49.5458 297.009 57.6877L300.009 57.7123ZM300.407 34.6604C300.736 26.5025 302.05 20.0874 304.268 15.3343L301.549 14.0657C299.101 19.3125 297.748 26.1641 297.41 34.5396L300.407 34.6604ZM304.271 15.3274C306.462 10.5698 309.811 7.17013 314.342 5.05974L313.075 2.34024C307.873 4.7632 304.022 8.69684 301.546 14.0725L304.271 15.3274ZM314.335 5.06301C319.003 2.91832 325.2 1.79999 333.009 1.79999V-1.20001C324.951 -1.20001 318.281 -0.0516777 313.082 2.33698L314.335 5.06301ZM333.009 1.79999C344.229 1.79999 352.058 4.33228 356.855 9.06747L358.962 6.93251C353.359 1.40103 344.589 -1.20001 333.009 -1.20001V1.79999ZM356.862 9.07416C361.737 13.8262 364.653 21.8436 365.311 33.4846L368.306 33.3154C367.631 21.3564 364.613 12.4404 358.956 6.92582L356.862 9.07416ZM365.31 33.4725C365.509 37.5789 365.609 41.9545 365.609 46.6H368.609C368.609 41.9121 368.508 37.4878 368.307 33.3275L365.31 33.4725ZM365.609 46.6C365.609 51.1784 365.509 55.5208 365.31 59.6275L368.307 59.7725C368.508 55.6125 368.609 51.2215 368.609 46.6H365.609ZM366.809 58.2H345.209V61.2H366.809V58.2ZM346.707 59.7661C346.908 55.2068 347.009 50.1844 347.009 44.7H344.009C344.009 50.1489 343.909 55.1265 343.71 59.6339L346.707 59.7661ZM347.009 44.7C347.009 39.1492 346.908 34.0934 346.707 29.5339L343.71 29.6661C343.909 34.1733 344.009 39.1841 344.009 44.7H347.009ZM346.707 29.5225C346.494 25.4166 345.275 22.1097 342.814 19.8868L340.803 22.1131C342.476 23.6237 343.523 26.0501 343.711 29.6775L346.707 29.5225ZM342.851 19.9215C340.478 17.6271 337.111 16.6 333.009 16.6V19.6C336.64 19.6 339.14 20.5062 340.766 22.0785L342.851 19.9215ZM333.009 16.6C328.727 16.6 325.229 17.6168 322.784 19.9046L324.833 22.0954C326.521 20.5165 329.157 19.6 333.009 19.6V16.6ZM322.785 19.9034C320.401 22.1287 319.222 25.4296 319.011 29.5225L322.007 29.6775C322.195 26.037 323.216 23.6046 324.832 22.0966L322.785 19.9034ZM319.009 29.552C318.743 37.8902 318.509 46.4615 318.309 55.2659L321.308 55.3341C321.508 46.5385 321.741 37.9764 322.008 29.648L319.009 29.552ZM318.309 55.2773C318.175 64.085 318.109 72.9592 318.109 81.9H321.109C321.109 72.9741 321.175 64.115 321.308 55.3227L318.309 55.2773ZM318.109 81.9C318.109 90.8408 318.175 99.715 318.309 108.523L321.308 108.477C321.175 99.685 321.109 90.8259 321.109 81.9H318.109ZM318.309 108.534C318.509 117.338 318.743 125.91 319.009 134.248L322.008 134.152C321.741 125.824 321.508 117.262 321.308 108.466L318.309 108.534ZM319.011 134.276C319.222 138.431 320.397 141.788 322.766 144.078L324.851 141.922C323.22 140.345 322.195 137.835 322.007 134.124L319.011 134.276ZM322.803 144.113C325.253 146.326 328.78 147.3 333.109 147.3V144.3C329.171 144.3 326.498 143.408 324.814 141.887L322.803 144.113ZM333.109 147.3C337.45 147.3 341.036 146.321 343.662 144.158L341.755 141.842C339.848 143.413 337.034 144.3 333.109 144.3V147.3ZM343.682 144.141C346.355 141.862 347.693 138.483 347.907 134.276L344.911 134.124C344.724 137.784 343.596 140.272 341.735 141.859L343.682 144.141ZM347.908 134.239C347.975 131.691 348.009 128.877 348.009 125.8H345.009C345.009 128.856 344.975 131.643 344.909 134.161L347.908 134.239ZM348.008 125.832C348.075 122.678 348.075 119.589 348.008 116.567L345.009 116.633C345.075 119.611 345.075 122.656 345.009 125.768L348.008 125.832ZM348.009 116.6C348.009 113.523 347.975 110.676 347.908 108.062L344.909 108.138C344.975 110.724 345.009 113.544 345.009 116.6H348.009ZM346.409 106.6H334.209V109.6H346.409V106.6ZM335.709 108.1V89.2H332.709V108.1H335.709ZM334.209 90.7H367.509V87.7H334.209V90.7ZM366.01 89.2535C366.209 94.8261 366.275 101.136 366.209 108.186L369.209 108.214C369.275 101.13 369.209 94.7739 369.008 89.1465L366.01 89.2535ZM366.209 108.2C366.209 115.248 366.076 122.631 365.809 130.348L368.808 130.452C369.075 122.703 369.209 115.285 369.209 108.2H366.209ZM365.81 130.341C365.35 142.042 362.496 150.115 357.561 154.926L359.656 157.074C365.388 151.485 368.334 142.491 368.807 130.459L365.81 130.341ZM357.562 154.926C352.702 159.662 344.674 162.2 333.109 162.2V165.2C345.01 165.2 353.982 162.605 359.656 157.074L357.562 154.926ZM409.688 160.4L409.055 161.76L409.066 161.765L409.077 161.77L409.688 160.4ZM398.888 149.7L397.525 150.326L397.53 150.337L397.536 150.348L398.888 149.7ZM395.088 130.4L393.589 130.441L393.589 130.45L395.088 130.4ZM394.688 107.2L393.188 107.212V107.212L394.688 107.2ZM394.688 57.7L396.188 57.7124V57.7123L394.688 57.7ZM395.088 34.6L393.59 34.5396L393.589 34.5491L393.589 34.5587L395.088 34.6ZM399.088 14.7L400.448 15.3343L400.451 15.3274L399.088 14.7ZM409.888 3.69999L409.262 2.33696L409.255 2.34024L409.888 3.69999ZM454.088 7.99999L453.034 9.06749L453.041 9.07416L454.088 7.99999ZM462.988 33.4L464.487 33.3275L464.486 33.3154L462.988 33.4ZM462.988 59.7V61.2H464.417L464.487 59.7725L462.988 59.7ZM441.388 59.7L439.89 59.6339L439.821 61.2H441.388V59.7ZM441.388 29.6L442.887 29.5339L442.886 29.5225L441.388 29.6ZM437.988 21L436.946 22.0785L436.964 22.0961L436.983 22.1131L437.988 21ZM419.988 21L421.012 22.0966L421.013 22.0954L419.988 21ZM416.688 29.6L415.19 29.5225L415.19 29.5373L415.189 29.552L416.688 29.6ZM415.988 55.3L414.489 55.2659L414.488 55.2773L415.988 55.3ZM415.988 108.5L414.488 108.523L414.489 108.534L415.988 108.5ZM416.688 134.2L415.189 134.248L415.19 134.262L415.19 134.276L416.688 134.2ZM419.988 143L418.946 144.078L418.964 144.096L418.983 144.113L419.988 143ZM438.888 143L439.842 144.158L439.852 144.15L439.862 144.141L438.888 143ZM442.588 134.2L444.086 134.276L444.087 134.258L444.088 134.239L442.588 134.2ZM442.688 125.8L441.189 125.768L441.188 125.784V125.8H442.688ZM442.688 116.6H441.188V116.617L441.189 116.633L442.688 116.6ZM442.588 108.1L444.088 108.062L444.05 106.6H442.588V108.1ZM430.388 108.1H428.888V109.6H430.388V108.1ZM430.388 89.2V87.7H428.888V89.2H430.388ZM463.688 89.2L465.187 89.1465L465.136 87.7H463.688V89.2ZM463.888 108.2L462.388 108.186L462.388 108.193V108.2H463.888ZM463.488 130.4L464.987 130.459L464.987 130.452L463.488 130.4ZM454.788 156L455.835 157.074L455.835 157.074L454.788 156ZM429.288 162.2C421.269 162.2 414.968 161.112 410.299 159.03L409.077 161.77C414.275 164.088 421.041 165.2 429.288 165.2V162.2ZM410.322 159.04C405.772 156.921 402.425 153.607 400.241 149.051L397.536 150.348C400.018 155.527 403.872 159.346 409.055 161.76L410.322 159.04ZM400.251 149.074C398.097 144.385 396.85 138.168 396.587 130.35L393.589 130.45C393.86 138.499 395.146 145.149 397.525 150.326L400.251 149.074ZM396.588 130.359C396.388 123.036 396.255 115.313 396.188 107.188L393.188 107.212C393.255 115.354 393.389 123.097 393.589 130.441L396.588 130.359ZM396.188 107.188C396.122 98.9919 396.088 90.7293 396.088 82.4H393.088C393.088 90.7373 393.122 99.0081 393.188 107.212L396.188 107.188ZM396.088 82.4C396.088 74.004 396.122 65.7748 396.188 57.7124L393.188 57.6876C393.122 65.7586 393.088 73.996 393.088 82.4H396.088ZM396.188 57.7123C396.255 49.5875 396.388 41.8972 396.588 34.6413L393.589 34.5587C393.389 41.8361 393.255 49.5458 393.188 57.6877L396.188 57.7123ZM396.587 34.6604C396.916 26.5025 398.229 20.0874 400.448 15.3343L397.729 14.0657C395.28 19.3125 393.927 26.1641 393.59 34.5396L396.587 34.6604ZM400.451 15.3274C402.642 10.5698 405.99 7.17013 410.522 5.05974L409.255 2.34024C404.053 4.7632 400.201 8.69684 397.726 14.0725L400.451 15.3274ZM410.515 5.06301C415.182 2.91832 421.379 1.79999 429.188 1.79999V-1.20001C421.13 -1.20001 414.461 -0.0516777 409.262 2.33698L410.515 5.06301ZM429.188 1.79999C440.408 1.79999 448.238 4.33228 453.034 9.06747L455.142 6.93251C449.539 1.40103 440.768 -1.20001 429.188 -1.20001V1.79999ZM453.041 9.07416C457.917 13.8262 460.833 21.8436 461.491 33.4846L464.486 33.3154C463.81 21.3564 460.793 12.4404 455.135 6.92582L453.041 9.07416ZM461.49 33.4725C461.689 37.5789 461.788 41.9545 461.788 46.6H464.788C464.788 41.9121 464.688 37.4878 464.487 33.3275L461.49 33.4725ZM461.788 46.6C461.788 51.1784 461.689 55.5208 461.49 59.6275L464.487 59.7725C464.688 55.6125 464.788 51.2215 464.788 46.6H461.788ZM462.988 58.2H441.388V61.2H462.988V58.2ZM442.887 59.7661C443.088 55.2068 443.188 50.1844 443.188 44.7H440.188C440.188 50.1489 440.089 55.1265 439.89 59.6339L442.887 59.7661ZM443.188 44.7C443.188 39.1492 443.088 34.0934 442.887 29.5339L439.89 29.6661C440.089 34.1733 440.188 39.1841 440.188 44.7H443.188ZM442.886 29.5225C442.674 25.4166 441.455 22.1097 438.994 19.8868L436.983 22.1131C438.655 23.6237 439.703 26.0501 439.89 29.6775L442.886 29.5225ZM439.031 19.9215C436.657 17.6271 433.29 16.6 429.188 16.6V19.6C432.82 19.6 435.319 20.5062 436.946 22.0785L439.031 19.9215ZM429.188 16.6C424.907 16.6 421.409 17.6168 418.964 19.9046L421.013 22.0954C422.701 20.5165 425.337 19.6 429.188 19.6V16.6ZM418.965 19.9034C416.581 22.1287 415.402 25.4296 415.19 29.5225L418.186 29.6775C418.375 26.037 419.396 23.6046 421.012 22.0966L418.965 19.9034ZM415.189 29.552C414.922 37.8902 414.689 46.4615 414.489 55.2659L417.488 55.3341C417.688 46.5385 417.921 37.9764 418.188 29.648L415.189 29.552ZM414.488 55.2773C414.355 64.085 414.288 72.9592 414.288 81.9H417.288C417.288 72.9741 417.355 64.115 417.488 55.3227L414.488 55.2773ZM414.288 81.9C414.288 90.8408 414.355 99.715 414.488 108.523L417.488 108.477C417.355 99.685 417.288 90.8259 417.288 81.9H414.288ZM414.489 108.534C414.689 117.338 414.922 125.91 415.189 134.248L418.188 134.152C417.921 125.824 417.688 117.262 417.488 108.466L414.489 108.534ZM415.19 134.276C415.401 138.431 416.577 141.788 418.946 144.078L421.031 141.922C419.4 140.345 418.375 137.835 418.186 134.124L415.19 134.276ZM418.983 144.113C421.433 146.326 424.959 147.3 429.288 147.3V144.3C425.351 144.3 422.677 143.408 420.994 141.887L418.983 144.113ZM429.288 147.3C433.63 147.3 437.216 146.321 439.842 144.158L437.935 141.842C436.028 143.413 433.213 144.3 429.288 144.3V147.3ZM439.862 144.141C442.534 141.862 443.872 138.483 444.086 134.276L441.09 134.124C440.904 137.784 439.776 140.272 437.915 141.859L439.862 144.141ZM444.088 134.239C444.155 131.691 444.188 128.877 444.188 125.8H441.188C441.188 128.856 441.155 131.643 441.089 134.161L444.088 134.239ZM444.188 125.832C444.255 122.678 444.255 119.589 444.188 116.567L441.189 116.633C441.255 119.611 441.255 122.656 441.189 125.768L444.188 125.832ZM444.188 116.6C444.188 113.523 444.155 110.676 444.088 108.062L441.089 108.138C441.155 110.724 441.188 113.544 441.188 116.6H444.188ZM442.588 106.6H430.388V109.6H442.588V106.6ZM431.888 108.1V89.2H428.888V108.1H431.888ZM430.388 90.7H463.688V87.7H430.388V90.7ZM462.189 89.2535C462.388 94.8261 462.455 101.136 462.388 108.186L465.388 108.214C465.455 101.13 465.388 94.7739 465.187 89.1465L462.189 89.2535ZM462.388 108.2C462.388 115.248 462.255 122.631 461.989 130.348L464.987 130.452C465.255 122.703 465.388 115.285 465.388 108.2H462.388ZM461.989 130.341C461.529 142.042 458.675 150.115 453.741 154.926L455.835 157.074C461.568 151.485 464.514 142.491 464.987 130.459L461.989 130.341ZM453.741 154.926C448.882 159.662 440.854 162.2 429.288 162.2V165.2C441.189 165.2 450.161 162.605 455.835 157.074L453.741 154.926Z" fill="#E50101"/>
</svg>
